solid Simple_Box_Improved_Sketch-Up
facet normal 0.0 0.0 -1.0
   outer loop
      vertex 150.0 50.0 0.0
      vertex 0.0 0.0 0.0
      vertex 0.0 50.0 0.0
   endloop
endfacet
facet normal 0.0 0.0 -1.0
   outer loop
      vertex 0.0 0.0 0.0
      vertex 150.0 50.0 0.0
      vertex 150.0 0.0 0.0
   endloop
endfacet
facet normal -1.0 6.42088000172842e-017 3.22775180162618e-016
   outer loop
      vertex 1.12798659301916e-014 49.8659144055527 9.99999999999999
      vertex 0.0 0.0 0.0
      vertex 0.0 0.0 10.0
   endloop
endfacet
facet normal -1.0 6.42088000172842e-017 3.22775180162618e-016
   outer loop
      vertex 0.0 0.0 0.0
      vertex 1.12798659301916e-014 49.8659144055527 9.99999999999999
      vertex 0.0 50.0 0.0
   endloop
endfacet
facet normal -1.0 6.42088000172842e-017 3.22775180162618e-016
   outer loop
      vertex 0.0 50.0 0.0
      vertex 1.12798659301916e-014 49.8659144055527 9.99999999999999
      vertex 0.0 50.0 10.0
   endloop
endfacet
facet normal 0.0 -1.0 0.0
   outer loop
      vertex 150.0 0.0 10.0
      vertex 0.0 0.0 0.0
      vertex 150.0 0.0 0.0
   endloop
endfacet
facet normal 0.0 -1.0 0.0
   outer loop
      vertex 0.0 0.0 0.0
      vertex 150.0 0.0 10.0
      vertex 149.693136827083 0.0 9.99999999999999
   endloop
endfacet
facet normal 0.0 -1.0 0.0
   outer loop
      vertex 0.0 0.0 10.0
      vertex 0.0 0.0 0.0
      vertex 149.693136827083 0.0 9.99999999999999
   endloop
endfacet
facet normal -6.12245241334441e-017 -1.83790695057627e-016 -1.0
   outer loop
      vertex 1.43410921368638e-014 49.8659144055527 60.0
      vertex 6.57562674924232 43.2902876563104 60.0
      vertex 6.57562674924231 6.57562674924232 60.0
   endloop
endfacet
facet normal -6.12245241334441e-017 -1.83790695057627e-016 -1.0
   outer loop
      vertex 6.57562674924232 43.2902876563104 60.0
      vertex 1.43410921368638e-014 49.8659144055527 60.0
      vertex 149.693136827083 49.8659144055527 60.0
   endloop
endfacet
facet normal -6.12245241334441e-017 -1.83790695057627e-016 -1.0
   outer loop
      vertex 6.57562674924232 43.2902876563104 60.0
      vertex 149.693136827083 49.8659144055527 60.0
      vertex 143.11751007784 43.2902876563104 60.0
   endloop
endfacet
facet normal -6.12245241334441e-017 -1.83790695057627e-016 -1.0
   outer loop
      vertex 143.11751007784 43.2902876563104 60.0
      vertex 149.693136827083 49.8659144055527 60.0
      vertex 143.11751007784 6.57562674924232 60.0
   endloop
endfacet
facet normal -6.12245241334441e-017 -1.83790695057627e-016 -1.0
   outer loop
      vertex 3.0612262066722e-015 9.18953475288135e-015 60.0
      vertex 6.57562674924231 6.57562674924232 60.0
      vertex 149.693136827083 9.18953475288135e-015 60.0
   endloop
endfacet
facet normal -6.12245241334441e-017 -1.83790695057627e-016 -1.0
   outer loop
      vertex 6.57562674924231 6.57562674924232 60.0
      vertex 3.0612262066722e-015 9.18953475288135e-015 60.0
      vertex 1.43410921368638e-014 49.8659144055527 60.0
   endloop
endfacet
facet normal -6.12245241334441e-017 -1.83790695057627e-016 -1.0
   outer loop
      vertex 149.693136827083 9.18953475288135e-015 60.0
      vertex 6.57562674924231 6.57562674924232 60.0
      vertex 143.11751007784 6.57562674924232 60.0
   endloop
endfacet
facet normal -6.12245241334441e-017 -1.83790695057627e-016 -1.0
   outer loop
      vertex 149.693136827083 9.18953475288135e-015 60.0
      vertex 143.11751007784 6.57562674924232 60.0
      vertex 149.693136827083 49.8659144055527 60.0
   endloop
endfacet
facet normal 1.0 6.14461125420339e-016 -6.12245241334442e-017
   outer loop
      vertex 143.11751007784 43.2902876563104 9.99999999999998
      vertex 143.11751007784 6.57562674924232 60.0
      vertex 143.11751007784 6.57562674924231 9.99999999999999
   endloop
endfacet
facet normal 1.0 6.14461125420339e-016 -6.12245241334442e-017
   outer loop
      vertex 143.11751007784 6.57562674924232 60.0
      vertex 143.11751007784 43.2902876563104 9.99999999999998
      vertex 143.11751007784 43.2902876563104 60.0
   endloop
endfacet
facet normal -1.0 2.30422922032627e-016 6.1224524133444e-017
   outer loop
      vertex 6.57562674924231 6.57562674924232 60.0
      vertex 6.57562674924232 43.2902876563104 9.99999999999999
      vertex 6.57562674924231 6.57562674924231 10.0
   endloop
endfacet
facet normal -1.0 2.30422922032627e-016 6.1224524133444e-017
   outer loop
      vertex 6.57562674924232 43.2902876563104 9.99999999999999
      vertex 6.57562674924231 6.57562674924232 60.0
      vertex 6.57562674924232 43.2902876563104 60.0
   endloop
endfacet
facet normal 0.0 0.0 -1.0
   outer loop
      vertex 152.086870811584 112.955886380247 0.0
      vertex 2.0868708115839 62.9558863802473 0.0
      vertex 2.0868708115839 112.955886380247 0.0
   endloop
endfacet
facet normal 0.0 0.0 -1.0
   outer loop
      vertex 2.0868708115839 62.9558863802473 0.0
      vertex 152.086870811584 112.955886380247 0.0
      vertex 152.086870811584 62.9558863802473 0.0
   endloop
endfacet
facet normal -0.0 -0.0 1.0
   outer loop
      vertex 145.377158467894 69.6655987239369 10.0
      vertex 8.79658315527352 106.246174036558 10.0
      vertex 8.79658315527352 69.6655987239369 10.0
   endloop
endfacet
facet normal -0.0 -0.0 1.0
   outer loop
      vertex 8.79658315527352 106.246174036558 10.0
      vertex 145.377158467894 69.6655987239369 10.0
      vertex 145.377158467894 106.246174036558 10.0
   endloop
endfacet
facet normal -0.0 -0.0 1.0
   outer loop
      vertex 145.377158467894 69.6655987239369 20.0
      vertex 8.79658315527352 106.246174036558 20.0
      vertex 8.79658315527352 69.6655987239369 20.0
   endloop
endfacet
facet normal -0.0 -0.0 1.0
   outer loop
      vertex 8.79658315527352 106.246174036558 20.0
      vertex 145.377158467894 69.6655987239369 20.0
      vertex 145.377158467894 106.246174036558 20.0
   endloop
endfacet
facet normal 0.0 -1.0 0.0
   outer loop
      vertex 145.377158467894 69.6655987239369 20.0
      vertex 8.79658315527352 69.6655987239369 10.0
      vertex 145.377158467894 69.6655987239369 10.0
   endloop
endfacet
facet normal 0.0 -1.0 0.0
   outer loop
      vertex 8.79658315527352 69.6655987239369 10.0
      vertex 145.377158467894 69.6655987239369 20.0
      vertex 8.79658315527352 69.6655987239369 20.0
   endloop
endfacet
facet normal -1.0 0.0 0.0
   outer loop
      vertex 8.79658315527352 106.246174036558 20.0
      vertex 8.79658315527352 69.6655987239369 10.0
      vertex 8.79658315527352 69.6655987239369 20.0
   endloop
endfacet
facet normal -1.0 0.0 0.0
   outer loop
      vertex 8.79658315527352 69.6655987239369 10.0
      vertex 8.79658315527352 106.246174036558 20.0
      vertex 8.79658315527352 106.246174036558 10.0
   endloop
endfacet
facet normal -0.0 1.0 -0.0
   outer loop
      vertex 8.79658315527352 106.246174036558 20.0
      vertex 145.377158467894 106.246174036558 10.0
      vertex 8.79658315527352 106.246174036558 10.0
   endloop
endfacet
facet normal -0.0 1.0 -0.0
   outer loop
      vertex 145.377158467894 106.246174036558 10.0
      vertex 8.79658315527352 106.246174036558 20.0
      vertex 145.377158467894 106.246174036558 20.0
   endloop
endfacet
facet normal 1.0 -0.0 -0.0
   outer loop
      vertex 145.377158467894 106.246174036558 10.0
      vertex 145.377158467894 69.6655987239369 20.0
      vertex 145.377158467894 69.6655987239369 10.0
   endloop
endfacet
facet normal 1.0 -0.0 -0.0
   outer loop
      vertex 145.377158467894 69.6655987239369 20.0
      vertex 145.377158467894 106.246174036558 10.0
      vertex 145.377158467894 106.246174036558 20.0
   endloop
endfacet
facet normal -0.0 -0.0 1.0
   outer loop
      vertex 2.0868708115839 62.9558863802473 10.0
      vertex 8.79658315527352 69.6655987239369 10.0
      vertex 2.0868708115839 112.955886380247 10.0
   endloop
endfacet
facet normal -0.0 -0.0 1.0
   outer loop
      vertex 8.79658315527352 69.6655987239369 10.0
      vertex 2.0868708115839 62.9558863802473 10.0
      vertex 152.086870811584 62.9558863802473 10.0
   endloop
endfacet
facet normal -0.0 -0.0 1.0
   outer loop
      vertex 8.79658315527352 69.6655987239369 10.0
      vertex 152.086870811584 62.9558863802473 10.0
      vertex 145.377158467894 69.6655987239369 10.0
   endloop
endfacet
facet normal -0.0 -0.0 1.0
   outer loop
      vertex 145.377158467894 69.6655987239369 10.0
      vertex 152.086870811584 62.9558863802473 10.0
      vertex 145.377158467894 106.246174036558 10.0
   endloop
endfacet
facet normal -0.0 -0.0 1.0
   outer loop
      vertex 2.0868708115839 112.955886380247 10.0
      vertex 8.79658315527352 106.246174036558 10.0
      vertex 152.086870811584 112.955886380247 10.0
   endloop
endfacet
facet normal -0.0 -0.0 1.0
   outer loop
      vertex 8.79658315527352 106.246174036558 10.0
      vertex 2.0868708115839 112.955886380247 10.0
      vertex 8.79658315527352 69.6655987239369 10.0
   endloop
endfacet
facet normal -0.0 -0.0 1.0
   outer loop
      vertex 152.086870811584 112.955886380247 10.0
      vertex 8.79658315527352 106.246174036558 10.0
      vertex 145.377158467894 106.246174036558 10.0
   endloop
endfacet
facet normal -0.0 -0.0 1.0
   outer loop
      vertex 152.086870811584 112.955886380247 10.0
      vertex 145.377158467894 106.246174036558 10.0
      vertex 152.086870811584 62.9558863802473 10.0
   endloop
endfacet
facet normal -0.0 1.0 -0.0
   outer loop
      vertex 2.0868708115839 112.955886380247 10.0
      vertex 152.086870811584 112.955886380247 0.0
      vertex 2.0868708115839 112.955886380247 0.0
   endloop
endfacet
facet normal -0.0 1.0 -0.0
   outer loop
      vertex 152.086870811584 112.955886380247 0.0
      vertex 2.0868708115839 112.955886380247 10.0
      vertex 152.086870811584 112.955886380247 10.0
   endloop
endfacet
facet normal -1.0 0.0 0.0
   outer loop
      vertex 2.0868708115839 112.955886380247 10.0
      vertex 2.0868708115839 62.9558863802473 0.0
      vertex 2.0868708115839 62.9558863802473 10.0
   endloop
endfacet
facet normal -1.0 0.0 0.0
   outer loop
      vertex 2.0868708115839 62.9558863802473 0.0
      vertex 2.0868708115839 112.955886380247 10.0
      vertex 2.0868708115839 112.955886380247 0.0
   endloop
endfacet
facet normal 0.0 -1.0 0.0
   outer loop
      vertex 152.086870811584 62.9558863802473 10.0
      vertex 2.0868708115839 62.9558863802473 0.0
      vertex 152.086870811584 62.9558863802473 0.0
   endloop
endfacet
facet normal 0.0 -1.0 0.0
   outer loop
      vertex 2.0868708115839 62.9558863802473 0.0
      vertex 152.086870811584 62.9558863802473 10.0
      vertex 2.0868708115839 62.9558863802473 10.0
   endloop
endfacet
facet normal 1.0 -0.0 -0.0
   outer loop
      vertex 152.086870811584 112.955886380247 0.0
      vertex 152.086870811584 62.9558863802473 10.0
      vertex 152.086870811584 62.9558863802473 0.0
   endloop
endfacet
facet normal 1.0 -0.0 -0.0
   outer loop
      vertex 152.086870811584 62.9558863802473 10.0
      vertex 152.086870811584 112.955886380247 0.0
      vertex 152.086870811584 112.955886380247 10.0
   endloop
endfacet
facet normal -2.06527580680973e-017 -1.0 1.83790695057627e-016
   outer loop
      vertex 143.11751007784 6.57562674924232 60.0
      vertex 6.57562674924231 6.57562674924231 10.0
      vertex 143.11751007784 6.57562674924231 9.99999999999999
   endloop
endfacet
facet normal -2.06527580680973e-017 -1.0 1.83790695057627e-016
   outer loop
      vertex 6.57562674924231 6.57562674924231 10.0
      vertex 143.11751007784 6.57562674924232 60.0
      vertex 6.57562674924231 6.57562674924232 60.0
   endloop
endfacet
facet normal -1.13873542805778e-032 1.0 -1.83790695057627e-016
   outer loop
      vertex 6.57562674924232 43.2902876563104 9.99999999999999
      vertex 143.11751007784 43.2902876563104 60.0
      vertex 143.11751007784 43.2902876563104 9.99999999999998
   endloop
endfacet
facet normal -1.13873542805778e-032 1.0 -1.83790695057627e-016
   outer loop
      vertex 143.11751007784 43.2902876563104 60.0
      vertex 6.57562674924232 43.2902876563104 9.99999999999999
      vertex 6.57562674924232 43.2902876563104 60.0
   endloop
endfacet
facet normal -0.0 1.0 0.0
   outer loop
      vertex 0.0 50.0 10.0
      vertex 150.0 50.0 0.0
      vertex 0.0 50.0 0.0
   endloop
endfacet
facet normal -0.0 1.0 0.0
   outer loop
      vertex 150.0 50.0 0.0
      vertex 0.0 50.0 10.0
      vertex 150.0 50.0 10.0
   endloop
endfacet
facet normal 1.0386921087746e-032 -1.0 1.83790695057627e-016
   outer loop
      vertex 149.693136827083 49.8659144055527 60.0
      vertex 1.12798659301916e-014 49.8659144055527 9.99999999999999
      vertex 149.693136827083 49.8659144055527 9.99999999999998
   endloop
endfacet
facet normal 1.0386921087746e-032 -1.0 1.83790695057627e-016
   outer loop
      vertex 1.12798659301916e-014 49.8659144055527 9.99999999999999
      vertex 149.693136827083 49.8659144055527 60.0
      vertex 1.43410921368638e-014 49.8659144055527 60.0
   endloop
endfacet
facet normal 1.0 0.0 0.0
   outer loop
      vertex 150.0 50.0 0.0
      vertex 150.0 0.0 10.0
      vertex 150.0 0.0 0.0
   endloop
endfacet
facet normal 1.0 0.0 0.0
   outer loop
      vertex 150.0 0.0 10.0
      vertex 150.0 50.0 0.0
      vertex 150.0 50.0 10.0
   endloop
endfacet
facet normal 2.79091765206302e-017 8.36640607883902e-017 1.0
   outer loop
      vertex 1.12798659301916e-014 49.8659144055527 9.99999999999999
      vertex 150.0 50.0 10.0
      vertex 0.0 50.0 10.0
   endloop
endfacet
facet normal 2.79091765206302e-017 8.36640607883902e-017 1.0
   outer loop
      vertex 150.0 50.0 10.0
      vertex 1.12798659301916e-014 49.8659144055527 9.99999999999999
      vertex 149.693136827083 49.8659144055527 9.99999999999998
   endloop
endfacet
facet normal 2.79091765206302e-017 8.36640607883902e-017 1.0
   outer loop
      vertex 150.0 50.0 10.0
      vertex 149.693136827083 49.8659144055527 9.99999999999998
      vertex 149.693136827083 0.0 9.99999999999999
   endloop
endfacet
facet normal 2.79091765206302e-017 8.36640607883902e-017 1.0
   outer loop
      vertex 150.0 50.0 10.0
      vertex 149.693136827083 0.0 9.99999999999999
      vertex 150.0 0.0 10.0
   endloop
endfacet
facet normal -1.0 -4.52407864757236e-016 6.12245241334442e-017
   outer loop
      vertex 149.693136827083 9.18953475288135e-015 60.0
      vertex 149.693136827083 49.8659144055527 9.99999999999998
      vertex 149.693136827083 0.0 9.99999999999999
   endloop
endfacet
facet normal -1.0 -4.52407864757236e-016 6.12245241334442e-017
   outer loop
      vertex 149.693136827083 49.8659144055527 9.99999999999998
      vertex 149.693136827083 9.18953475288135e-015 60.0
      vertex 149.693136827083 49.8659144055527 60.0
   endloop
endfacet
facet normal 1.0 -2.26203932378618e-016 -6.1224524133444e-017
   outer loop
      vertex 1.12798659301916e-014 49.8659144055527 9.99999999999999
      vertex 3.0612262066722e-015 9.18953475288135e-015 60.0
      vertex 0.0 0.0 10.0
   endloop
endfacet
facet normal 1.0 -2.26203932378618e-016 -6.1224524133444e-017
   outer loop
      vertex 3.0612262066722e-015 9.18953475288135e-015 60.0
      vertex 1.12798659301916e-014 49.8659144055527 9.99999999999999
      vertex 1.43410921368638e-014 49.8659144055527 60.0
   endloop
endfacet
facet normal -1.21180746023703e-032 1.0 -1.83790695057627e-016
   outer loop
      vertex 0.0 0.0 10.0
      vertex 149.693136827083 9.18953475288135e-015 60.0
      vertex 149.693136827083 0.0 9.99999999999999
   endloop
endfacet
facet normal -1.21180746023703e-032 1.0 -1.83790695057627e-016
   outer loop
      vertex 149.693136827083 9.18953475288135e-015 60.0
      vertex 0.0 0.0 10.0
      vertex 3.0612262066722e-015 9.18953475288135e-015 60.0
   endloop
endfacet
facet normal -3.26298282531246e-017 -9.78350039475919e-017 -1.0
   outer loop
      vertex 1.12798659301916e-014 49.8659144055527 9.99999999999999
      vertex -0.306863172917379 -0.134085594447334 9.99999999999998
      vertex -0.306863172917379 49.8659144055527 9.99999999999998
   endloop
endfacet
facet normal -3.26298282531246e-017 -9.78350039475919e-017 -1.0
   outer loop
      vertex -0.306863172917379 -0.134085594447334 9.99999999999998
      vertex 1.12798659301916e-014 49.8659144055527 9.99999999999999
      vertex 0.0 0.0 10.0
   endloop
endfacet
facet normal -3.26298282531246e-017 -9.78350039475919e-017 -1.0
   outer loop
      vertex 0.0 0.0 10.0
      vertex 149.693136827083 -0.134085594447334 9.99999999999998
      vertex -0.306863172917379 -0.134085594447334 9.99999999999998
   endloop
endfacet
facet normal -3.26298282531246e-017 -9.78350039475919e-017 -1.0
   outer loop
      vertex 149.693136827083 -0.134085594447334 9.99999999999998
      vertex 0.0 0.0 10.0
      vertex 149.693136827083 0.0 9.99999999999999
   endloop
endfacet
endsolid Simple_Box_Improved_Sketch-Up
